<svg xmlns="http://www.w3.org/2000/svg" xmlns:xlink="http://www.w3.org/1999/xlink" viewBox="0 0 169.76 178.16"><defs><linearGradient id="linear-gradient" x1="97.4" y1="119.17" x2="97.4" y2="15.5" gradientUnits="userSpaceOnUse"><stop offset="0" stop-color="#b11f24"/><stop offset="1" stop-color="#ec1c24"/></linearGradient><linearGradient id="linear-gradient-2" x1="110.21" y1="108.3" x2="110.21" y2="16.17" xlink:href="#linear-gradient"/><linearGradient id="linear-gradient-3" x1="98.16" y1="47.23" x2="132.17" y2="47.23" gradientUnits="userSpaceOnUse"><stop offset="0" stop-color="#0067b2"/><stop offset="1" stop-color="#11345c"/></linearGradient><linearGradient id="linear-gradient-4" x1="82.96" y1="113.42" x2="82.96" y2="43.79" xlink:href="#linear-gradient"/><linearGradient id="linear-gradient-5" x1="33.52" y1="69.96" x2="132.17" y2="69.96" xlink:href="#linear-gradient-3"/></defs><title>KN En Colors</title><g id="Layer_2" data-name="Layer 2"><g id="Layer_1-2" data-name="Layer 1"><polygon points="49.22 9.6 52.72 0 55.85 6.72 62.62 3.58 65.72 10.26 72.44 7.13 68.91 16.8 49.22 9.6" style="fill:#ec1c24"/><path d="M31.42,25.7s-4-5.12-4.77-8S20.92,10,16.06,10A18.55,18.55,0,0,1,21.17,19C22.25,24.42,31.42,25.7,31.42,25.7Z" style="fill:#ec1c24"/><path d="M109.34,82c-2.26-3.41-5-6.53-7.42-9.82A87,87,0,0,1,90.23,51.78c-2.79-7.23-4.36-14.66-3-22.43a43.29,43.29,0,0,1,1.88-7c.75-2.12,2.15-4.8,3.1-6.85,0,0-.11.16-.46.57s-.6.66-.88,1a67.27,67.27,0,0,0-7.3,11.22,38.64,38.64,0,0,0-4.39,16.82c-.17,9,2.89,16.94,7.83,24.23C89.8,73.4,93,77.16,95.81,81.16c3.55,5,6.44,10.41,7.3,16.65a17.22,17.22,0,0,1-1.46,10.43c-2.08,4.07-5.47,6.64-9.58,8.38-1.17.49-2.36.92-3.74,1.45,5.4,1.46,10.59,1.59,15.64-.35,7.18-2.75,11-8.14,11.56-15.75C116.07,94.55,113.33,88,109.34,82Z" style="fill:url(#linear-gradient)"/><path d="M97.8,38.26c-2.42-6.3-2.75-13-2.68-19.66,0-.49,0-1.94,0-2.43,0,0-.09.2-.19.45-.51,1.33-1.25,3.12-1.77,4.45A34.12,34.12,0,0,0,91.1,36.31a49,49,0,0,0,7.43,21.82c2.92,4.82,6.57,9.21,10,13.71,3.89,5.11,7.77,10.23,10.16,16.27a25.34,25.34,0,0,1,2,12.59c-.32,2.55-1,5-1.45,7.6a35.7,35.7,0,0,0,8.56-13c3-8.35,1.87-16-4.49-22.44-7.65-7.72-14.9-15.75-20.6-25A58.9,58.9,0,0,1,97.8,38.26Z" style="fill:url(#linear-gradient-2)"/><path d="M98.16,16.17s.06,2.5.1,2.92c.27,3.33.4,6.68.92,10a39.9,39.9,0,0,0,5.91,15.07c3.32,5.24,7.57,9.7,11.79,14.19a108.33,108.33,0,0,1,11.41,13.62c1.25,1.89,2.71,3.93,3.76,5.93a1.53,1.53,0,0,1,.12.42c0-.45-.1-1.56-.16-2a46.09,46.09,0,0,0-9.43-22.2c-4.27-5.63-8.81-11-13.14-16.64a62.53,62.53,0,0,1-10-17.82c-.22-.62-.49-1.21-.72-1.82S98.16,16.17,98.16,16.17Z" style="fill:url(#linear-gradient-3)"/><path d="M99.81,100.33c-.39-6.31-3-10.14-6-14.33l.07-.11-.2-.16,0,0c-1.84-2.56-3.93-5-6-7.51-.25-.35-.5-.69-.76-1-3.89-5.08-7.29-10.42-9.25-16.58A33,33,0,0,1,76.06,48.7c.09-1.6.24-3.2.37-4.91a8.24,8.24,0,0,0-.41.91c-1,2.94-2,5.84-2.78,8.83a28.87,28.87,0,0,0-.1,12.88c1.28,6.15,4.26,11.52,8,16.5,1.31,1.77,2.84,3.36,4.16,5.11C87,90.34,90,93.66,90.88,97.51a4.8,4.8,0,0,1-4.47,6,9.23,9.23,0,0,1-3.68-.62c-3.29-1.33-5.7-3.86-7.87-6.52-5-6.12-6.89-13.35-7-21.12,0-1.73.05-3.45.09-5.18a1.82,1.82,0,0,0-.47.91,56.63,56.63,0,0,0-1.3,15.13c.45,6.4,1.74,12.65,5.58,17.91.79,1.08,2.52,2.94,3.27,3.75,6.35,6.8,13.3,6.69,18.34,3.52C96.52,109.64,100.14,105.76,99.81,100.33Z" style="fill:url(#linear-gradient-4)"/><path d="M97.4,122.36c-8.26-.23-14.15-2.24-18.12-4.38a38.08,38.08,0,0,1-13.64-14.41c-8.49-16.31-5.23-29,1.4-46.51s6.08-20.35,3.53-28.46l8.65-4L37.82,9.46a.55.55,0,0,0-.74.44L35.35,21.33a.56.56,0,0,0,.42.62c1.63.38,6.78,1.78,9.14,4.56a10.55,10.55,0,0,1,2.26,5.19L35.26,27.84a.56.56,0,0,0-.73.46l-1,8.05a.56.56,0,0,0,.69.61c2.25-.58,8.67-1.92,11.12.93,3,3.49,5.27,6.11-1.42,22.11-8.93,21.36-4.27,40,.27,47.41a43.34,43.34,0,0,0,12.57,13.83c9.35,7,24.36,14.13,49.58,4.77s25.84-33,25.84-33C129.91,107.28,115.7,122.88,97.4,122.36ZM51.66,22.22,49.71,18l8.54,3.75Z" style="fill:url(#linear-gradient-5)"/><path d="M5.15,177.68H0V153H5.15v10l9.41-10h6.66l-10.06,10.1L21.8,177.68H15.18L7.55,166.86l-2.4,2.47Z" style="fill:#0067b2"/><path d="M37.85,174.11c0,2.16.48,2.64,1.06,2.85v.72H33.73a7.79,7.79,0,0,1-.45-2.17,7.41,7.41,0,0,1-5.91,2.65c-2.74,0-5.56-1.55-5.56-5.33,0-3.57,2.27-5.39,5.32-5.83l4.33-.66c.76-.1,1.68-.41,1.68-1.44,0-2-1.92-2.13-3.16-2.13-2.4,0-2.81,1.48-2.95,2.54H22.4c.54-5.59,4.42-6.38,8.17-6.38,2.57,0,7.28.79,7.28,5.29Zm-4.71-5.33c-.48.38-1.27.69-3.26,1-1.78.31-3.26.75-3.26,2.75a2.09,2.09,0,0,0,2.23,2.19c2.13,0,4.29-1.37,4.29-3.6Z" style="fill:#0067b2"/><path d="M46.81,173.73h9.58v4H40.59v-3.75L50,163.25H41.25v-3.84h14.8v4Z" style="fill:#0067b2"/><path d="M73.61,174.11c0,2.16.48,2.64,1.07,2.85v.72H69.49a8.18,8.18,0,0,1-.44-2.17,7.43,7.43,0,0,1-5.91,2.65c-2.75,0-5.56-1.55-5.56-5.33,0-3.57,2.26-5.39,5.32-5.83l4.33-.66c.75-.1,1.68-.41,1.68-1.44,0-2-1.92-2.13-3.16-2.13-2.4,0-2.82,1.48-3,2.54H58.16c.55-5.59,4.43-6.38,8.17-6.38,2.58,0,7.28.79,7.28,5.29Zm-4.7-5.33c-.48.38-1.27.69-3.26,1-1.79.31-3.27.75-3.27,2.75a2.1,2.1,0,0,0,2.24,2.19c2.13,0,4.29-1.37,4.29-3.6Z" style="fill:#0067b2"/><path d="M92.94,177.68H88.13V166.59c0-1.34-.07-3.61-3.12-3.61-2.13,0-3.78,1.44-3.78,4.22v10.48H76.42V159.41H81v2.68h.07a5.9,5.9,0,0,1,5.5-3.16c3.57,0,6.35,2.09,6.35,6.11Z" style="fill:#0067b2"/><path d="M108.52,152.24l10.37,16.66H119V152.24h5.12v24.83h-5.46l-10.33-16.62h-.07v16.62H103.1V152.24Z" style="fill:#ec1c24"/><path d="M133.63,172.76a5,5,0,0,0,5.77.33,3.11,3.11,0,0,0,1.32-1.58h4.35a8.28,8.28,0,0,1-3.2,4.62,9.41,9.41,0,0,1-5.22,1.39,10.08,10.08,0,0,1-3.82-.68,7.86,7.86,0,0,1-2.89-1.93,8.61,8.61,0,0,1-1.82-3,10.9,10.9,0,0,1-.65-3.82,10.5,10.5,0,0,1,.66-3.76,8.87,8.87,0,0,1,1.88-3,8.76,8.76,0,0,1,2.91-2,9.23,9.23,0,0,1,3.73-.74,8.55,8.55,0,0,1,4,.89,8,8,0,0,1,2.8,2.38,9.79,9.79,0,0,1,1.58,3.41,12.63,12.63,0,0,1,.35,4h-13A5,5,0,0,0,133.63,172.76Zm5.58-9.46a3.46,3.46,0,0,0-2.69-1,4.27,4.27,0,0,0-2,.4,3.57,3.57,0,0,0-1.25,1,3.51,3.51,0,0,0-.66,1.25,5.3,5.3,0,0,0-.23,1.18h8A5.71,5.71,0,0,0,139.21,163.3Z" style="fill:#ec1c24"/><path d="M146.43,162.4v-3.31h2.95V157.7a5.38,5.38,0,0,1,1.5-3.93,6,6,0,0,1,4.52-1.53c.44,0,.88,0,1.32,0l1.28.09v3.69a14.87,14.87,0,0,0-1.8-.11,1.91,1.91,0,0,0-1.45.47,2.3,2.3,0,0,0-.43,1.58v1.08h3.41v3.31h-3.41v14.67h-4.94V162.4Z" style="fill:#ec1c24"/><path d="M169.76,159.09v3.31h-3.62v8.9a2.42,2.42,0,0,0,.42,1.67,2.46,2.46,0,0,0,1.67.41c.28,0,.54,0,.8,0a5.57,5.57,0,0,0,.73-.11v3.83a11.06,11.06,0,0,1-1.39.14l-1.5,0a15,15,0,0,1-2.17-.15,5.23,5.23,0,0,1-1.81-.61,3.19,3.19,0,0,1-1.23-1.29,4.45,4.45,0,0,1-.46-2.19V162.4h-3v-3.31h3V153.7h4.94v5.39Z" style="fill:#ec1c24"/></g></g></svg>