<svg xmlns="http://www.w3.org/2000/svg" viewBox="0 0 211.46 175.58"><title>KN Ru Black</title><g id="Layer_2" data-name="Layer 2"><g id="Layer_1-2" data-name="Layer 1"><path d="M0,151.52H4.5v6.59l6.5-6.59h6l-7.16,7.21,7.46,10.14H11.41l-5.09-7.32L4.5,163.38v5.49H0Z" style="fill:#231f20"/><path d="M33.8,165.45a7.51,7.51,0,0,0,.09,1.28,2.89,2.89,0,0,0,.23.79,1,1,0,0,0,.33.43,1.27,1.27,0,0,0,.38.2v.72h-5c-.08-.2-.17-.47-.27-.8a4,4,0,0,1-.16-1.22c-.35.36-.69.69-1,1a5.56,5.56,0,0,1-1.12.8,6.26,6.26,0,0,1-1.44.55,8.46,8.46,0,0,1-1.95.19,6.36,6.36,0,0,1-2.14-.34,4.69,4.69,0,0,1-1.7-1,4.37,4.37,0,0,1-1.11-1.67,6.16,6.16,0,0,1-.4-2.32,5.79,5.79,0,0,1,.33-2,5.08,5.08,0,0,1,.95-1.61,5.25,5.25,0,0,1,1.5-1.15,6.46,6.46,0,0,1,2-.61l4.41-.65.51-.1a1.58,1.58,0,0,0,.52-.21,1.24,1.24,0,0,0,.4-.42,1.39,1.39,0,0,0,.16-.7,2.22,2.22,0,0,0-.14-.79,1.44,1.44,0,0,0-.45-.62,2.25,2.25,0,0,0-.85-.41,5.53,5.53,0,0,0-1.33-.14,4.82,4.82,0,0,0-1.46.18,2.18,2.18,0,0,0-.87.51,2,2,0,0,0-.46.76,5.59,5.59,0,0,0-.2.94H19a5.28,5.28,0,0,1,.11-.89,6.36,6.36,0,0,1,1.16-2.58,5.12,5.12,0,0,1,1.32-1.25,7.13,7.13,0,0,1,2-.93,9.57,9.57,0,0,1,2.81-.39,12.57,12.57,0,0,1,3.77.47,6.08,6.08,0,0,1,2.24,1.23,3.71,3.71,0,0,1,1.08,1.69,6.25,6.25,0,0,1,.28,1.85Zm-4.5-5c-.28.15-.55.29-.83.41a5.55,5.55,0,0,1-1.1.31l-1.19.22a11,11,0,0,0-1.37.34,2.92,2.92,0,0,0-1,.5,2,2,0,0,0-.59.75,2.81,2.81,0,0,0-.2,1.12,2.35,2.35,0,0,0,.18,1,1.83,1.83,0,0,0,.48.67,2.22,2.22,0,0,0,.73.39,3.13,3.13,0,0,0,.89.13,4.46,4.46,0,0,0,.65-.06,4.69,4.69,0,0,0,.84-.21,5.33,5.33,0,0,0,.9-.44,3.2,3.2,0,0,0,.79-.73,3.51,3.51,0,0,0,.57-1.09,4.59,4.59,0,0,0,.23-1.52Z" style="fill:#231f20"/><path d="M36.9,156.33a5.09,5.09,0,0,1,.58-2.44A4.6,4.6,0,0,1,39,152.24a6.84,6.84,0,0,1,2.29-.93,12.85,12.85,0,0,1,2.85-.3,9.26,9.26,0,0,1,3,.42,6,6,0,0,1,2.05,1.1,4.26,4.26,0,0,1,1.2,1.56,4.59,4.59,0,0,1,.38,1.81,4.08,4.08,0,0,1-.22,1.36,3.2,3.2,0,0,1-.61,1A3.24,3.24,0,0,1,49,159a4.67,4.67,0,0,1-1,.43v.06a4.31,4.31,0,0,1,1.54.54,3.57,3.57,0,0,1,1,.93,3.51,3.51,0,0,1,.58,1.18,4.35,4.35,0,0,1,.19,1.27A5.34,5.34,0,0,1,49,168a7.34,7.34,0,0,1-2.31,1,10.22,10.22,0,0,1-2.57.32,14.28,14.28,0,0,1-3.1-.31,6.57,6.57,0,0,1-2.41-1,4.91,4.91,0,0,1-1.59-1.85,6.32,6.32,0,0,1-.59-2.79h4.3a2.72,2.72,0,0,0,.22,1.11,2.75,2.75,0,0,0,.62.88,3.06,3.06,0,0,0,1,.57,3.47,3.47,0,0,0,1.24.21,3.14,3.14,0,0,0,1.38-.27,2.32,2.32,0,0,0,.86-.66,2.36,2.36,0,0,0,.46-.85,2.9,2.9,0,0,0,.13-.83,2.05,2.05,0,0,0-.67-1.75,3.7,3.7,0,0,0-2.16-.5H41.74v-3h1.74a3.39,3.39,0,0,0,2.14-.52,1.88,1.88,0,0,0,.63-1.53,2.34,2.34,0,0,0-.19-1,1.65,1.65,0,0,0-.51-.65,2.09,2.09,0,0,0-.77-.35,4.25,4.25,0,0,0-1-.1,3.11,3.11,0,0,0-1.93.55,1.82,1.82,0,0,0-.74,1.58Z" style="fill:#231f20"/><path d="M68.22,165.45a7.51,7.51,0,0,0,.09,1.28,2.89,2.89,0,0,0,.23.79,1.09,1.09,0,0,0,.33.43,1.2,1.2,0,0,0,.39.2v.72h-5c-.08-.2-.17-.47-.27-.8a4.33,4.33,0,0,1-.15-1.22c-.35.36-.7.69-1,1a5.56,5.56,0,0,1-1.12.8,6.08,6.08,0,0,1-1.44.55,8.46,8.46,0,0,1-1.95.19,6.36,6.36,0,0,1-2.14-.34,4.69,4.69,0,0,1-1.7-1,4.37,4.37,0,0,1-1.11-1.67,6.16,6.16,0,0,1-.4-2.32,5.79,5.79,0,0,1,.33-2,5.08,5.08,0,0,1,1-1.61,5.25,5.25,0,0,1,1.5-1.15,6.46,6.46,0,0,1,2-.61l4.41-.65c.16,0,.33-.06.51-.1a1.58,1.58,0,0,0,.52-.21,1.24,1.24,0,0,0,.4-.42,1.39,1.39,0,0,0,.16-.7,2.22,2.22,0,0,0-.14-.79,1.44,1.44,0,0,0-.45-.62,2.25,2.25,0,0,0-.85-.41,5.53,5.53,0,0,0-1.33-.14,4.82,4.82,0,0,0-1.46.18,2.07,2.07,0,0,0-.86.51,1.94,1.94,0,0,0-.47.76,5.59,5.59,0,0,0-.2.94H53.45a5.28,5.28,0,0,1,.11-.89,6.36,6.36,0,0,1,1.16-2.58A5.12,5.12,0,0,1,56,152.33a7.13,7.13,0,0,1,2-.93,9.57,9.57,0,0,1,2.81-.39,12.57,12.57,0,0,1,3.77.47,6,6,0,0,1,2.24,1.23,3.71,3.71,0,0,1,1.08,1.69,6.25,6.25,0,0,1,.28,1.85Zm-4.5-5c-.28.15-.55.29-.83.41a5.55,5.55,0,0,1-1.1.31l-1.19.22a11,11,0,0,0-1.37.34,2.92,2.92,0,0,0-1,.5,2.05,2.05,0,0,0-.59.75,2.81,2.81,0,0,0-.2,1.12,2.35,2.35,0,0,0,.18,1,2,2,0,0,0,.48.67,2.22,2.22,0,0,0,.73.39,3.13,3.13,0,0,0,.89.13,4.46,4.46,0,0,0,.65-.06,5,5,0,0,0,.85-.21,5.64,5.64,0,0,0,.89-.44,3.2,3.2,0,0,0,.79-.73,3.52,3.52,0,0,0,.58-1.09,4.88,4.88,0,0,0,.22-1.52Z" style="fill:#231f20"/><path d="M72.33,151.52h4.5v6.27h6.62v-6.27h4.49v17.35H83.45v-7.43H76.83v7.43h-4.5Z" style="fill:#231f20"/><path d="M91.2,151.52h4.51v6h4.6a11.41,11.41,0,0,1,2.87.34,5.77,5.77,0,0,1,2.14,1,4.59,4.59,0,0,1,1.34,1.78,6.51,6.51,0,0,1,.46,2.54,6.11,6.11,0,0,1-.38,2.26,5.26,5.26,0,0,1-1,1.56,4.66,4.66,0,0,1-1.33,1,7.67,7.67,0,0,1-2.73.77c-.4,0-.7.05-.92.05H91.2Zm4.51,14h3.8a6,6,0,0,0,1-.09,2.83,2.83,0,0,0,.94-.33,1.88,1.88,0,0,0,.68-.69,2.63,2.63,0,0,0,0-2.26,1.86,1.86,0,0,0-.72-.7,3.25,3.25,0,0,0-1-.36,7.21,7.21,0,0,0-1.26-.11H95.71Z" style="fill:#231f20"/><path d="M114.13,151.52h4.51v6.27h6.62v-6.27h4.48v17.35h-4.48v-7.43h-6.62v7.43h-4.51Z" style="fill:#231f20"/><path d="M137.27,161.6a6,6,0,0,0,0,.63,4.8,4.8,0,0,0,.6,1.79,2.93,2.93,0,0,0,.73.85,3.5,3.5,0,0,0,1.11.63,4.92,4.92,0,0,0,1.58.23,3.4,3.4,0,0,0,.95-.13,3.12,3.12,0,0,0,.87-.4,3,3,0,0,0,.69-.64,2.12,2.12,0,0,0,.42-.85h4.67a3.36,3.36,0,0,1-.21,1.09,5.18,5.18,0,0,1-.63,1.24,7.37,7.37,0,0,1-1.06,1.24,6.9,6.9,0,0,1-1.51,1.07,8.59,8.59,0,0,1-2,.76,9.9,9.9,0,0,1-2.46.28,10.21,10.21,0,0,1-3.26-.51,7,7,0,0,1-2.65-1.64,7.69,7.69,0,0,1-1.79-2.91,13.55,13.55,0,0,1-.19-7.72,8.22,8.22,0,0,1,1.47-2.87,7.2,7.2,0,0,1,2.54-2A8.69,8.69,0,0,1,141,151a9,9,0,0,1,3.88.76,6.39,6.39,0,0,1,2.54,2.14,9,9,0,0,1,1.37,3.34,20.85,20.85,0,0,1,.42,4.35Zm7.21-3a4.75,4.75,0,0,0-.34-1.9,3.55,3.55,0,0,0-.86-1.22,3.09,3.09,0,0,0-1.14-.64,4.25,4.25,0,0,0-1.19-.18,4.18,4.18,0,0,0-1.18.18,3,3,0,0,0-1.14.64,3.55,3.55,0,0,0-.86,1.22,4.58,4.58,0,0,0-.34,1.9Z" style="fill:#231f20"/><path d="M161.33,167.18h-.06a4.1,4.1,0,0,1-.61.81,3.69,3.69,0,0,1-.85.71,4.1,4.1,0,0,1-1.1.5,4.43,4.43,0,0,1-1.36.19,4.87,4.87,0,0,1-2.34-.59,6,6,0,0,1-2-1.77,9.3,9.3,0,0,1-1.37-2.9,13.76,13.76,0,0,1-.52-4,15.4,15.4,0,0,1,.3-3.22,10,10,0,0,1,.78-2.4,6.35,6.35,0,0,1,1.15-1.69,5.76,5.76,0,0,1,1.36-1.07,5.15,5.15,0,0,1,1.42-.57,5.93,5.93,0,0,1,1.34-.17,5.47,5.47,0,0,1,1.07.11,3.86,3.86,0,0,1,1.94,1,5.1,5.1,0,0,1,.78,1.07h.06v-7.75h4.49v7.75h.06a5.1,5.1,0,0,1,.78-1.07,3.69,3.69,0,0,1,.93-.68,3.76,3.76,0,0,1,1-.36,5.68,5.68,0,0,1,1.09-.11,5.84,5.84,0,0,1,1.33.17,5.22,5.22,0,0,1,1.41.57,5.72,5.72,0,0,1,1.35,1.07,6.35,6.35,0,0,1,1.15,1.69,10.39,10.39,0,0,1,.79,2.4,16.16,16.16,0,0,1,.29,3.22,13.76,13.76,0,0,1-.52,4,9.3,9.3,0,0,1-1.37,2.9,6.09,6.09,0,0,1-2,1.77,4.94,4.94,0,0,1-2.35.59,4.47,4.47,0,0,1-1.36-.19,4.1,4.1,0,0,1-1.1-.5,3.91,3.91,0,0,1-.85-.71,4.1,4.1,0,0,1-.61-.81h-.06v8.4h-4.49Zm-5.71-6.86a14.59,14.59,0,0,0,.11,1.67,5.93,5.93,0,0,0,.46,1.7,3.9,3.9,0,0,0,1,1.32,2.45,2.45,0,0,0,1.66.53,2.84,2.84,0,0,0,1.25-.24,1.73,1.73,0,0,0,.76-.68,2.88,2.88,0,0,0,.39-1.08,8.81,8.81,0,0,0,.11-1.42V158a5.6,5.6,0,0,0-.13-1.28,2.63,2.63,0,0,0-.42-1,1.92,1.92,0,0,0-.76-.65,3,3,0,0,0-2.74.23,3.29,3.29,0,0,0-1,1.23,6,6,0,0,0-.52,1.75A14.82,14.82,0,0,0,155.62,160.32Zm15.91,0a13.37,13.37,0,0,0-.15-2,6,6,0,0,0-.52-1.75,3.18,3.18,0,0,0-1-1.23,3,3,0,0,0-2.74-.23,1.92,1.92,0,0,0-.76.65,2.63,2.63,0,0,0-.42,1,5.6,5.6,0,0,0-.13,1.28v4.1a8.81,8.81,0,0,0,.11,1.42,3.07,3.07,0,0,0,.39,1.08,1.78,1.78,0,0,0,.76.68,2.84,2.84,0,0,0,1.25.24,2.72,2.72,0,0,0,1.19-.24,3,3,0,0,0,.86-.66,3.51,3.51,0,0,0,.58-.95,7.15,7.15,0,0,0,.35-1.11,9.43,9.43,0,0,0,.17-1.17A10.41,10.41,0,0,0,171.53,160.32Z" style="fill:#231f20"/><path d="M183,155.18h-5.25v-3.66h15v3.66h-5.25v13.69H183Z" style="fill:#231f20"/><path d="M195.55,151.52h4.5v6h4.6a11.35,11.35,0,0,1,2.87.34,5.77,5.77,0,0,1,2.14,1A4.59,4.59,0,0,1,211,160.7a6.33,6.33,0,0,1,.46,2.54,6.11,6.11,0,0,1-.38,2.26,5.06,5.06,0,0,1-1,1.56,4.66,4.66,0,0,1-1.33,1,7.67,7.67,0,0,1-2.73.77c-.4,0-.7.05-.91.05h-9.58Zm4.5,14h3.8a6.2,6.2,0,0,0,1.05-.09,2.86,2.86,0,0,0,.93-.33,1.88,1.88,0,0,0,.68-.69,2.22,2.22,0,0,0,.26-1.13,2.12,2.12,0,0,0-.27-1.13,1.84,1.84,0,0,0-.71-.7,3.43,3.43,0,0,0-1-.36,7.32,7.32,0,0,0-1.27-.11h-3.42Z" style="fill:#231f20"/><polygon points="73.73 9.6 77.24 0 80.37 6.72 87.13 3.58 90.24 10.26 96.96 7.13 93.43 16.8 73.73 9.6" style="fill:#231f20"/><path d="M55.94,25.7s-4-5.12-4.77-8S45.44,10,40.58,10A18.55,18.55,0,0,1,45.69,19C46.77,24.42,55.94,25.7,55.94,25.7Z" style="fill:#231f20"/><path d="M133.86,82c-2.26-3.41-5-6.53-7.42-9.82a87,87,0,0,1-11.69-20.42c-2.79-7.23-4.36-14.66-3-22.43a44.38,44.38,0,0,1,1.89-7c.75-2.12,2.15-4.8,3.1-6.85,0,0-.11.16-.46.57s-.6.66-.88,1a67.27,67.27,0,0,0-7.3,11.22,38.64,38.64,0,0,0-4.39,16.82c-.17,9,2.89,16.94,7.83,24.23,2.75,4.05,5.93,7.81,8.76,11.81,3.55,5,6.44,10.41,7.3,16.65a17.22,17.22,0,0,1-1.46,10.43c-2.08,4.07-5.47,6.64-9.58,8.38-1.17.49-2.36.92-3.74,1.45,5.4,1.46,10.59,1.59,15.64-.35,7.18-2.75,11-8.14,11.56-15.75C140.59,94.55,137.85,88,133.86,82Z" style="fill:#231f20"/><path d="M122.32,38.26c-2.42-6.3-2.75-13-2.68-19.66,0-.49,0-1.94,0-2.43,0,0-.09.2-.19.45-.51,1.33-1.25,3.12-1.77,4.45a34.12,34.12,0,0,0-2.09,15.24,49,49,0,0,0,7.43,21.82c2.92,4.82,6.57,9.21,10,13.71,3.89,5.11,7.77,10.23,10.16,16.27a25.45,25.45,0,0,1,2,12.59c-.32,2.55-1,5-1.45,7.6a35.7,35.7,0,0,0,8.56-13c3-8.35,1.87-16-4.49-22.44-7.65-7.72-14.9-15.75-20.6-25A58.9,58.9,0,0,1,122.32,38.26Z" style="fill:#231f20"/><path d="M122.68,16.17s.06,2.5.09,2.92c.28,3.33.41,6.68.93,10a39.9,39.9,0,0,0,5.91,15.07c3.32,5.24,7.57,9.7,11.79,14.19a108.33,108.33,0,0,1,11.41,13.62c1.25,1.89,2.71,3.93,3.76,5.93a1.53,1.53,0,0,1,.12.42c0-.45-.1-1.56-.16-2a46.09,46.09,0,0,0-9.43-22.2c-4.27-5.63-8.81-11-13.14-16.64a62.53,62.53,0,0,1-10-17.82c-.22-.62-.49-1.21-.72-1.82S122.68,16.17,122.68,16.17Z" style="fill:#231f20"/><path d="M124.33,100.33c-.39-6.31-3-10.14-6-14.33l.07-.11-.2-.16,0,0c-1.84-2.56-3.93-5-6-7.51-.25-.35-.5-.69-.76-1-3.89-5.08-7.29-10.42-9.25-16.58a33,33,0,0,1-1.65-11.95c.09-1.6.24-3.2.37-4.91a8.24,8.24,0,0,0-.41.91c-1,2.94-2,5.84-2.78,8.83a28.87,28.87,0,0,0-.1,12.88c1.28,6.15,4.26,11.52,8,16.5,1.31,1.77,2.84,3.36,4.16,5.11,1.75,2.32,4.74,5.64,5.62,9.49a4.8,4.8,0,0,1-4.47,6,9.23,9.23,0,0,1-3.68-.62c-3.29-1.33-5.7-3.86-7.87-6.52-5-6.12-6.89-13.35-7-21.12,0-1.73,0-3.45.09-5.18A1.82,1.82,0,0,0,92,71a56.63,56.63,0,0,0-1.3,15.13c.45,6.4,1.74,12.65,5.58,17.91.79,1.08,2.52,2.94,3.27,3.75,6.35,6.8,13.3,6.69,18.34,3.52C121,109.64,124.66,105.76,124.33,100.33Z" style="fill:#231f20"/><path d="M121.92,122.36c-8.26-.23-14.15-2.24-18.12-4.38a38.08,38.08,0,0,1-13.64-14.41c-8.49-16.31-5.23-29,1.4-46.51s6.08-20.35,3.53-28.46l8.65-4L62.34,9.46a.55.55,0,0,0-.74.44L59.87,21.33a.56.56,0,0,0,.42.62c1.63.38,6.78,1.78,9.14,4.56a10.55,10.55,0,0,1,2.26,5.19L59.78,27.84a.56.56,0,0,0-.73.46l-1,8.05a.56.56,0,0,0,.69.61c2.25-.58,8.67-1.92,11.12.93,3,3.49,5.27,6.11-1.42,22.11-8.93,21.36-4.27,40,.26,47.41a43.47,43.47,0,0,0,12.58,13.83c9.35,7,24.36,14.13,49.58,4.77s25.84-33,25.84-33C154.43,107.28,140.22,122.88,121.92,122.36ZM76.18,22.22l-2-4.21,8.55,3.75Z" style="fill:#231f20"/></g></g></svg>